<svg width="722" height="458" viewBox="0 0 722 458" fill="none" xmlns="http://www.w3.org/2000/svg">
<g id="contifica" clip-path="url(#clip0_609_104)">
<g id="Rectangle 968" filter="url(#filter0_i_609_104)">
<rect width="722" height="458" rx="25" fill="url(#paint0_linear_609_104)"/>
</g>
<text id="RICARDO LAURITO" fill="#FEFBFF" xml:space="preserve" style="white-space: pre" font-family="Sora" font-size="24" font-weight="600" letter-spacing="0.1em"><tspan x="221" y="363.16">RICARDO LAURITO</tspan></text>
<circle id="Ellipse 10" cx="581.889" cy="86.4971" r="45.7505" fill="#E71924"/>
<circle id="Ellipse 11" cx="637.647" cy="86.4971" r="45.7505" fill="#F99F19"/>
<path id="Intersect" fill-rule="evenodd" clip-rule="evenodd" d="M609.768 122.595C620.636 114.23 627.64 101.092 627.64 86.3172C627.64 71.5427 620.636 58.404 609.768 50.0396C598.9 58.404 591.897 71.5427 591.897 86.3172C591.897 101.092 598.9 114.23 609.768 122.595Z" fill="#F26520"/>
<g id="Group 301">
<rect id="Rectangle 344" x="80.4209" y="156.195" width="97.9347" height="69.3406" rx="6.07624" fill="url(#paint1_linear_609_104)" stroke="#211F21" stroke-width="2.14455"/>
<path id="Vector 9" d="M80.7783 178.713H110.087" stroke="#211F21" stroke-width="2" stroke-linecap="round"/>
<path id="Vector 10" d="M80.7783 200.873H109.445" stroke="#211F21" stroke-width="2" stroke-linecap="round"/>
<path id="Vector 11" d="M149.404 200.873H177.998" stroke="#211F21" stroke-width="2" stroke-linecap="round"/>
<path id="Vector 12" d="M148.975 179.428H177.998" stroke="#211F21" stroke-width="2" stroke-linecap="round"/>
<circle id="Ellipse 12" cx="129.388" cy="166.561" r="2.14455" fill="#211F21"/>
<g id="Vector 13">
<path d="M231.053 205.824C236.325 192.59 236.926 185.119 231.053 171.645C230.43 170.215 231.053 169.024 231.768 168.786C232.483 168.547 233.589 168.786 234.27 170.215C241.188 184.73 240.767 192.87 234.627 207.387C233.912 208.817 232.575 208.998 231.768 208.46C230.824 207.831 230.608 206.941 231.053 205.824Z" fill="#FEFBFF"/>
<path d="M223.547 172.717C222.832 173.075 222.375 174.43 223.19 175.934C227.999 185.94 227.801 191.662 223.19 202.026C222.686 203.071 222.998 204.226 223.905 204.528C224.977 204.886 225.913 204.125 226.406 203.098C231.701 192.084 231.84 185.756 226.406 174.147C225.905 173.075 224.619 172.181 223.547 172.717Z" fill="#FEFBFF"/>
<path d="M216.399 177.364C215.326 177.721 215.136 178.908 215.684 180.223C218.53 187.063 218.979 190.898 215.684 197.737C215.041 198.929 214.83 200.193 216.041 200.596C217.252 201 218.126 200.363 218.543 199.524C222.766 191.149 221.82 186.454 218.543 178.079C218.263 177.364 217.471 177.006 216.399 177.364Z" fill="#FEFBFF"/>
<path d="M208.893 180.223C207.82 180.938 207.668 182.022 208.535 183.797C210.344 187.564 210.303 189.68 208.535 193.448C207.713 195.11 207.463 197.022 208.893 197.38C210.322 197.737 210.957 197.229 211.752 195.235C213.578 189.987 213.756 187.02 211.752 181.653C211.291 180.261 210.322 179.508 208.893 180.223Z" fill="#FEFBFF"/>
</g>
<path id="Vector 14" d="M145.115 170.849C142.372 161.508 137.251 156.91 129.03 156.91C119.023 156.91 116.194 164.53 110.087 178.355C113.998 187.507 114.039 192.437 110.087 200.873C116.494 219.254 121.24 224.915 129.388 224.821C140.111 224.821 143.163 215.733 149.046 200.873C145.952 192.497 145.622 187.875 148.5 179.5" stroke="#211F21" stroke-width="2" stroke-linecap="round"/>
</g>
<g id="Group 322">
<path id="logo-contifica-detalhe" d="M128.439 341.599C113.207 357.807 108.345 343.412 97.4175 343.603C92.7643 343.691 89 347.368 89 352.021C89 356.674 92.7818 360.351 97.4175 360.438C108.327 360.648 113.207 346.252 128.439 362.443C128.439 362.443 131.924 366.12 138.32 366.12C146.11 366.12 152.436 359.794 152.436 352.004C152.436 344.213 146.11 337.887 138.32 337.887C131.907 337.905 128.439 341.599 128.439 341.599Z" fill="#FEFBFF"/>
<path id="logo-contifica-c" d="M161.516 368.264C159.948 367.183 158.118 366.625 156.201 366.625C154.04 366.625 151.896 367.375 150.154 368.717C146.564 371.505 142.259 372.969 137.693 372.969C137.327 372.969 136.961 372.952 136.578 372.934C131.524 372.655 126.94 370.494 123.507 367.148C119.882 363.611 117.547 358.766 117.355 353.433C117.128 347.839 119.15 342.541 123.019 338.515C123.89 337.609 124.814 336.807 125.807 336.092C129.241 333.6 133.353 332.258 137.693 332.258C142.294 332.258 146.633 333.757 150.241 336.598C151.914 337.905 154.005 338.637 156.131 338.637C158.066 338.637 159.913 338.062 161.516 336.964C164.043 335.221 165.56 332.467 165.664 329.4C165.769 326.385 164.479 323.597 162.144 321.75C155.138 316.19 146.686 313.245 137.693 313.245C123.716 313.245 111.464 320.425 104.476 331.352C100.834 337.068 98.603 343.813 98.3415 351.098V351.115C98.3241 351.812 98.3067 352.544 98.3241 353.293C98.4984 363.68 102.664 373.405 110.07 380.69C117.477 387.992 127.289 392 137.693 392C146.633 392 155.068 389.072 162.074 383.548C164.444 381.665 165.751 378.842 165.664 375.81C165.56 372.76 164.061 370.006 161.516 368.264ZM160.54 381.613C153.97 386.789 146.076 389.525 137.693 389.525C127.568 389.525 118.122 385.517 111.099 378.215C108.049 375.06 105.626 371.418 103.901 367.479C101.966 363.07 100.886 358.278 100.799 353.363C100.781 352.561 100.781 351.847 100.816 351.185C101.165 341.843 104.912 333.461 110.872 327.187C117.599 320.076 127.132 315.685 137.71 315.685C146.128 315.685 154.057 318.438 160.628 323.649C162.353 325.008 163.294 327.065 163.224 329.296C163.137 331.579 162.022 333.618 160.14 334.907C158.955 335.726 157.578 336.145 156.149 336.145C154.545 336.145 153.029 335.622 151.774 334.628C147.784 331.492 142.782 329.766 137.693 329.766C132.918 329.766 128.387 331.213 124.587 333.897C123.402 334.733 122.27 335.692 121.241 336.772C116.972 341.216 114.706 347.072 114.88 353.241V353.485C115.089 359.149 117.425 364.517 121.433 368.577C121.572 368.717 121.712 368.856 121.834 368.978C125.79 372.812 130.948 375.078 136.421 375.374C136.839 375.392 137.257 375.409 137.658 375.409C142.764 375.409 147.592 373.753 151.618 370.634C152.942 369.606 154.545 369.048 156.166 369.048C157.578 369.048 158.92 369.466 160.105 370.268C161.97 371.557 163.085 373.596 163.172 375.845C163.277 378.128 162.301 380.219 160.54 381.613Z" fill="#FEFBFF"/>
<path id="logo-contifica-sobreposicao-externa" d="M100.781 353.38C100.764 352.579 100.764 351.864 100.799 351.202C100.886 348.814 101.2 346.514 101.705 344.266C100.938 344.022 100.137 343.83 99.3175 343.725C98.7772 346.095 98.4461 348.553 98.3415 351.08V351.097C98.3241 351.794 98.3067 352.526 98.3241 353.276C98.359 355.681 98.6204 358.051 99.0909 360.369C99.9274 360.264 100.729 360.09 101.513 359.863C101.078 357.737 100.834 355.576 100.781 353.38Z" fill="#FEFBFF"/>
<path id="logo-contifica-sobreposicao-interna" d="M115.106 349.302C114.915 350.592 114.828 351.917 114.863 353.259V353.503C114.88 353.921 114.915 354.339 114.95 354.74C115.769 354.722 116.605 354.792 117.494 354.984C117.424 354.461 117.389 353.938 117.355 353.398C117.302 351.899 117.407 350.435 117.651 348.989C116.78 349.233 115.926 349.32 115.106 349.302Z" fill="#FEFBFF"/>
</g>
</g>
<defs>
<filter id="filter0_i_609_104" x="0" y="0" width="725" height="461" filterUnits="userSpaceOnUse" color-interpolation-filters="sRGB">
<feFlood flood-opacity="0" result="BackgroundImageFix"/>
<feBlend mode="normal" in="SourceGraphic" in2="BackgroundImageFix" result="shape"/>
<feColorMatrix in="SourceAlpha" type="matrix" values="0 0 0 0 0 0 0 0 0 0 0 0 0 0 0 0 0 0 127 0" result="hardAlpha"/>
<feOffset dx="3" dy="3"/>
<feGaussianBlur stdDeviation="3"/>
<feComposite in2="hardAlpha" operator="arithmetic" k2="-1" k3="1"/>
<feColorMatrix type="matrix" values="0 0 0 0 1 0 0 0 0 1 0 0 0 0 1 0 0 0 0.25 0"/>
<feBlend mode="normal" in2="shape" result="effect1_innerShadow_609_104"/>
</filter>
<linearGradient id="paint0_linear_609_104" x1="774.744" y1="-203.937" x2="360.481" y2="714.351" gradientUnits="userSpaceOnUse">
<stop offset="0.375701" stop-color="#82269E"/>
<stop offset="0.915961" stop-color="#1192D7"/>
</linearGradient>
<linearGradient id="paint1_linear_609_104" x1="171" y1="165" x2="87" y2="221" gradientUnits="userSpaceOnUse">
<stop stop-color="#F4F4F4"/>
<stop offset="1" stop-color="#D6D6D6"/>
</linearGradient>
<clipPath id="clip0_609_104">
<rect width="722" height="458" fill="white"/>
</clipPath>
</defs>
</svg>
