<svg width="450" height="450" viewBox="0 0 450 450" fill="none" xmlns="http://www.w3.org/2000/svg">
<g clip-path="url(#clip0_40_571)">
<g filter="url(#filter0_dddd_40_571)">
<rect x="36" y="36" width="377.62" height="377.62" rx="80.9186" fill="url(#paint0_linear_40_571)"/>
</g>
<g opacity="0.8">
<path d="M227.822 196.486C188.883 237.92 176.453 201.12 148.519 201.61C136.623 201.833 127 211.233 127 223.129C127 235.024 136.668 244.425 148.519 244.647C176.408 245.182 188.883 208.382 227.822 249.771C227.822 249.771 236.732 259.171 253.083 259.171C272.997 259.171 289.17 242.999 289.17 223.084C289.17 203.169 272.997 186.997 253.083 186.997C236.687 187.041 227.822 196.486 227.822 196.486Z" fill="white"/>
<path d="M312.381 264.651C308.372 261.889 303.694 260.463 298.793 260.463C293.269 260.463 287.789 262.379 283.333 265.81C274.156 272.938 263.151 276.68 251.479 276.68C250.543 276.68 249.607 276.636 248.627 276.591C235.707 275.878 223.99 270.354 215.213 261.8C205.946 252.756 199.976 240.37 199.486 226.737C198.907 212.436 204.075 198.892 213.966 188.601C216.193 186.284 218.555 184.235 221.094 182.408C229.871 176.037 240.385 172.606 251.479 172.606C263.24 172.606 274.334 176.438 283.556 183.7C287.833 187.041 293.179 188.912 298.615 188.912C303.56 188.912 308.283 187.442 312.381 184.635C318.842 180.18 322.718 173.141 322.985 165.3C323.252 157.592 319.955 150.464 313.985 145.741C296.075 131.529 274.468 124 251.479 124C215.748 124 184.428 142.355 166.562 170.29C157.251 184.903 151.548 202.144 150.88 220.767V220.812C150.835 222.594 150.791 224.465 150.835 226.381C151.281 252.934 161.929 277.794 180.863 296.417C199.798 315.084 224.881 325.331 251.479 325.331C274.334 325.331 295.897 317.846 313.807 303.723C319.866 298.912 323.208 291.694 322.985 283.942C322.718 276.146 318.886 269.106 312.381 264.651ZM309.887 298.778C293.09 312.01 272.908 319.005 251.479 319.005C225.594 319.005 201.447 308.758 183.492 290.09C175.695 282.026 169.503 272.715 165.092 262.646C160.147 251.375 157.385 239.123 157.162 226.559C157.117 224.51 157.117 222.683 157.206 220.99C158.097 197.11 167.676 175.681 182.913 159.642C200.11 141.464 224.48 130.237 251.523 130.237C273.042 130.237 293.313 137.277 310.109 150.598C314.52 154.073 316.926 159.33 316.748 165.033C316.525 170.869 313.673 176.081 308.862 179.378C305.832 181.472 302.313 182.542 298.659 182.542C294.561 182.542 290.685 181.205 287.477 178.665C277.274 170.646 264.488 166.235 251.479 166.235C239.271 166.235 227.688 169.933 217.975 176.794C214.946 178.933 212.05 181.383 209.421 184.145C198.506 195.506 192.714 210.476 193.16 226.247V226.871C193.695 241.35 199.665 255.072 209.912 265.453C210.268 265.81 210.624 266.166 210.936 266.478C221.05 276.279 234.237 282.071 248.226 282.828C249.296 282.873 250.365 282.918 251.39 282.918C264.443 282.918 276.784 278.685 287.076 270.71C290.462 268.082 294.561 266.656 298.704 266.656C302.313 266.656 305.743 267.725 308.773 269.775C313.54 273.072 316.391 278.284 316.614 284.031C316.881 289.868 314.386 295.214 309.887 298.778Z" fill="white"/>
<path d="M157.117 226.603C157.073 224.554 157.073 222.727 157.162 221.034C157.385 214.93 158.186 209.049 159.478 203.302C157.518 202.679 155.469 202.188 153.375 201.921C151.994 207.98 151.147 214.262 150.88 220.722V220.767C150.835 222.549 150.791 224.42 150.835 226.336C150.924 232.484 151.593 238.543 152.796 244.468C154.934 244.201 156.984 243.756 158.988 243.176C157.875 237.741 157.251 232.217 157.117 226.603Z" fill="white"/>
<path d="M193.739 216.179C193.249 219.476 193.026 222.862 193.115 226.293V226.917C193.16 227.986 193.249 229.055 193.338 230.08C195.432 230.035 197.571 230.213 199.843 230.704C199.665 229.367 199.575 228.03 199.486 226.649C199.353 222.818 199.62 219.075 200.244 215.378C198.016 216.001 195.833 216.224 193.739 216.179Z" fill="white"/>
</g>
</g>
<defs>
<filter id="filter0_dddd_40_571" x="-44" y="7" width="537.62" height="537.62" filterUnits="userSpaceOnUse" color-interpolation-filters="sRGB">
<feFlood flood-opacity="0" result="BackgroundImageFix"/>
<feColorMatrix in="SourceAlpha" type="matrix" values="0 0 0 0 0 0 0 0 0 0 0 0 0 0 0 0 0 0 127 0" result="hardAlpha"/>
<feOffset dy="2.30969"/>
<feGaussianBlur stdDeviation="1.81152"/>
<feColorMatrix type="matrix" values="0 0 0 0 0.662745 0 0 0 0 0.313726 0 0 0 0 0.768627 0 0 0 0.0278729 0"/>
<feBlend mode="normal" in2="BackgroundImageFix" result="effect1_dropShadow_40_571"/>
<feColorMatrix in="SourceAlpha" type="matrix" values="0 0 0 0 0 0 0 0 0 0 0 0 0 0 0 0 0 0 127 0" result="hardAlpha"/>
<feOffset dy="6.38599"/>
<feGaussianBlur stdDeviation="5.00862"/>
<feColorMatrix type="matrix" values="0 0 0 0 0.662745 0 0 0 0 0.313726 0 0 0 0 0.768627 0 0 0 0.04 0"/>
<feBlend mode="normal" in2="effect1_dropShadow_40_571" result="effect2_dropShadow_40_571"/>
<feColorMatrix in="SourceAlpha" type="matrix" values="0 0 0 0 0 0 0 0 0 0 0 0 0 0 0 0 0 0 127 0" result="hardAlpha"/>
<feOffset dy="15.375"/>
<feGaussianBlur stdDeviation="12.0588"/>
<feColorMatrix type="matrix" values="0 0 0 0 0.662745 0 0 0 0 0.313726 0 0 0 0 0.768627 0 0 0 0.0521271 0"/>
<feBlend mode="normal" in2="effect2_dropShadow_40_571" result="effect3_dropShadow_40_571"/>
<feColorMatrix in="SourceAlpha" type="matrix" values="0 0 0 0 0 0 0 0 0 0 0 0 0 0 0 0 0 0 127 0" result="hardAlpha"/>
<feOffset dy="51"/>
<feGaussianBlur stdDeviation="40"/>
<feColorMatrix type="matrix" values="0 0 0 0 0.662745 0 0 0 0 0.313726 0 0 0 0 0.768627 0 0 0 0.08 0"/>
<feBlend mode="normal" in2="effect3_dropShadow_40_571" result="effect4_dropShadow_40_571"/>
<feBlend mode="normal" in="SourceGraphic" in2="effect4_dropShadow_40_571" result="shape"/>
</filter>
<linearGradient id="paint0_linear_40_571" x1="441.206" y1="-132.146" x2="10.8433" y2="473.009" gradientUnits="userSpaceOnUse">
<stop offset="0.375701" stop-color="#82269E"/>
<stop offset="0.915961" stop-color="#1192D7"/>
</linearGradient>
<clipPath id="clip0_40_571">
<rect width="450" height="450" fill="white"/>
</clipPath>
</defs>
</svg>
