<svg viewBox="0 0 500 514" fill="none" xmlns="http://www.w3.org/2000/svg">
<g id="Group 321">
<path id="logo-contifica-detalhe" d="M257.198 184.913C157.865 290.611 126.155 196.733 54.8946 197.983C24.5491 198.552 0 222.533 0 252.878C0 283.224 24.6628 307.204 54.8946 307.773C126.042 309.136 157.865 215.259 257.198 320.843C257.198 320.843 279.928 344.824 321.639 344.824C372.442 344.824 413.699 303.567 413.699 252.764C413.699 201.961 372.442 160.705 321.639 160.705C279.815 160.819 257.198 184.913 257.198 184.913Z" fill="url(#paint0_linear_10122_21)"/>
<path id="logo-contifica-c" d="M472.912 358.804C462.683 351.757 450.75 348.121 438.248 348.121C424.155 348.121 410.175 353.008 398.81 361.759C375.397 379.943 347.325 389.49 317.548 389.49C315.161 389.49 312.774 389.377 310.274 389.263C277.314 387.445 247.424 373.352 225.034 351.53C201.394 328.458 186.164 296.863 184.914 262.085C183.437 225.602 196.62 191.051 221.852 164.798C227.534 158.888 233.558 153.659 240.036 149C262.426 132.747 289.248 123.996 317.548 123.996C347.552 123.996 375.852 133.77 399.378 152.296C410.289 160.82 423.927 165.593 437.793 165.593C450.409 165.593 462.456 161.843 472.912 154.682C489.392 143.317 499.28 125.36 499.962 105.357C500.643 85.6947 492.233 67.5101 477.004 55.4629C431.315 19.2074 376.193 0 317.548 0C226.398 0 146.499 46.8252 100.924 118.086C77.1707 155.364 62.6231 199.348 60.9183 246.855V246.969C60.8046 251.515 60.691 256.289 60.8046 261.176C61.9412 328.913 89.1043 392.332 137.407 439.839C185.71 487.46 249.697 513.6 317.548 513.6C375.852 513.6 430.86 494.506 476.549 458.478C492.006 446.203 500.53 427.792 499.962 408.016C499.28 388.127 489.505 370.169 472.912 358.804ZM466.547 445.863C423.7 479.618 372.215 497.461 317.548 497.461C251.515 497.461 189.915 471.321 144.113 423.7C124.223 403.129 108.425 379.375 97.1738 353.69C84.5582 324.935 77.5117 293.681 76.9434 261.63C76.8298 256.402 76.8298 251.742 77.0571 247.424C79.3301 186.505 103.766 131.838 142.635 90.9228C186.505 44.5522 248.674 15.9115 317.661 15.9115C372.556 15.9115 424.268 33.8687 467.116 67.8511C478.367 76.7161 484.505 90.1272 484.05 104.675C483.482 119.563 476.208 132.861 463.933 141.271C456.205 146.613 447.226 149.341 437.907 149.341C427.451 149.341 417.563 145.931 409.38 139.453C383.353 118.995 350.735 107.743 317.548 107.743C286.407 107.743 256.857 117.177 232.08 134.679C224.352 140.135 216.964 146.386 210.259 153.432C182.414 182.414 167.639 220.601 168.775 260.835V262.426C170.139 299.363 185.369 334.368 211.509 360.85C212.418 361.759 213.328 362.668 214.123 363.464C239.922 388.467 273.564 403.242 309.251 405.175C311.979 405.288 314.706 405.402 317.32 405.402C350.621 405.402 382.103 394.605 408.357 374.261C416.995 367.555 427.451 363.918 438.02 363.918C447.226 363.918 455.978 366.646 463.706 371.874C475.867 380.284 483.141 393.582 483.709 408.243C484.391 423.132 478.026 436.77 466.547 445.863Z" fill="url(#paint1_linear_10122_21)"/>
<path id="logo-contifica-sobreposicao-externa" d="M76.8298 261.743C76.7161 256.515 76.7161 251.855 76.9434 247.537C77.5117 231.966 79.5575 216.964 82.8534 202.303C77.8527 200.711 72.6246 199.461 67.2829 198.779C63.7596 214.236 61.6002 230.261 60.9183 246.741V246.855C60.8046 251.401 60.691 256.174 60.8046 261.061C61.032 276.746 62.7367 292.202 65.8054 307.318C71.2608 306.636 76.4888 305.5 81.6032 304.022C78.7619 290.157 77.1707 276.064 76.8298 261.743Z" fill="url(#paint2_linear_10122_21)"/>
<path id="logo-contifica-sobreposicao-interna" d="M170.253 235.149C169.003 243.56 168.434 252.197 168.662 260.949V262.54C168.775 265.267 169.003 267.995 169.23 270.609C174.572 270.496 180.027 270.95 185.823 272.2C185.369 268.791 185.141 265.381 184.914 261.858C184.573 252.084 185.255 242.537 186.846 233.104C181.164 234.695 175.595 235.263 170.253 235.149Z" fill="url(#paint3_linear_10122_21)"/>
</g>
<defs>
<linearGradient id="paint0_linear_10122_21" x1="20.7295" y1="114.244" x2="340.357" y2="335.525" gradientUnits="userSpaceOnUse">
<stop offset="0.00856817" stop-color="#0C9CDE"/>
<stop offset="0.1214" stop-color="#0D99DC"/>
<stop offset="0.2076" stop-color="#128FD6"/>
<stop offset="0.285" stop-color="#197FCD"/>
<stop offset="0.3572" stop-color="#2468BF"/>
<stop offset="0.4258" stop-color="#314AAE"/>
<stop offset="0.4908" stop-color="#422698"/>
<stop offset="0.5475" stop-color="#530082"/>
<stop offset="0.5682" stop-color="#5D0888"/>
<stop offset="0.6171" stop-color="#6E1592"/>
<stop offset="0.6779" stop-color="#791F99"/>
<stop offset="0.7632" stop-color="#80249D"/>
<stop offset="1" stop-color="#82269E"/>
</linearGradient>
<linearGradient id="paint1_linear_10122_21" x1="432.879" y1="406.82" x2="97.9684" y2="-16.691" gradientUnits="userSpaceOnUse">
<stop stop-color="#82269E"/>
<stop offset="0.4392" stop-color="#0C9CDE"/>
<stop offset="0.7862" stop-color="#5850B5"/>
<stop offset="1" stop-color="#82269E"/>
</linearGradient>
<linearGradient id="paint2_linear_10122_21" x1="286.228" y1="522.789" x2="-48.6824" y2="99.2783" gradientUnits="userSpaceOnUse">
<stop stop-color="#0C9CDE"/>
<stop offset="0.4392" stop-color="#0C9CDE"/>
<stop offset="0.7862" stop-color="#5850B5"/>
<stop offset="1" stop-color="#82269E"/>
</linearGradient>
<linearGradient id="paint3_linear_10122_21" x1="6.21546" y1="133.017" x2="327.747" y2="355.616" gradientUnits="userSpaceOnUse">
<stop offset="0.00856817" stop-color="#0C9CDE"/>
<stop offset="0.5206" stop-color="#530082"/>
<stop offset="1" stop-color="#82269E"/>
</linearGradient>
</defs>
</svg>
