<svg width="90" height="90" viewBox="0 0 90 90" fill="none" xmlns="http://www.w3.org/2000/svg">
<g clip-path="url(#clip0_45_847)">
<g opacity="0.8" filter="url(#filter0_di_45_847)">
<path d="M45.9857 33.1859C29.7703 50.4404 24.594 35.1155 12.9612 35.3196C8.00747 35.4123 4 39.327 4 44.2807C4 49.2344 8.02603 53.1491 12.9612 53.2419C24.5754 53.4645 29.7703 38.1396 45.9857 55.3755C45.9857 55.3755 49.6963 59.2902 56.5053 59.2902C64.7986 59.2902 71.5334 52.5554 71.5334 44.2622C71.5334 35.9689 64.7986 29.2341 56.5053 29.2341C49.6778 29.2527 45.9857 33.1859 45.9857 33.1859Z" fill="white"/>
<path d="M81.1998 61.5722C79.53 60.4219 77.5819 59.8282 75.5411 59.8282C73.2405 59.8282 70.9585 60.626 69.1031 62.0546C65.2812 65.0231 60.6986 66.5816 55.8377 66.5816C55.448 66.5816 55.0584 66.563 54.6503 66.5445C49.2699 66.2476 44.3904 63.947 40.7354 60.3848C36.8764 56.6185 34.3902 51.4608 34.1862 45.7835C33.945 39.828 36.0971 34.1878 40.2159 29.902C41.1436 28.9373 42.1269 28.0838 43.1844 27.3232C46.8394 24.6701 51.2179 23.2415 55.8377 23.2415C60.7357 23.2415 65.3554 24.837 69.1959 27.8612C70.977 29.2527 73.2034 30.0319 75.4669 30.0319C77.5263 30.0319 79.4929 29.4197 81.1998 28.2508C83.89 26.3955 85.5041 23.4641 85.6154 20.1988C85.7267 16.9891 84.3538 14.0206 81.8677 12.0539C74.4093 6.13548 65.4111 3 55.8377 3C40.9581 3 27.9152 10.6439 20.4754 22.2767C16.5978 28.3621 14.223 35.5422 13.9447 43.2974V43.3159C13.9261 44.0581 13.9076 44.8373 13.9261 45.6351C14.1117 56.6928 18.5459 67.0454 26.4309 74.8006C34.316 82.5744 44.7614 86.8416 55.8377 86.8416C65.3554 86.8416 74.3351 83.7247 81.7935 77.8433C84.3167 75.8396 85.7082 72.834 85.6154 69.6057C85.5041 66.3589 83.9085 63.4275 81.1998 61.5722ZM80.1608 75.7839C73.1663 81.2942 64.7617 84.207 55.8377 84.207C45.0583 84.207 35.0025 79.9398 27.5256 72.1661C24.2788 68.8079 21.6999 64.9303 19.8631 60.7373C17.8037 56.0434 16.6535 50.9413 16.5607 45.7093C16.5421 44.8559 16.5421 44.0952 16.5792 43.3902C16.9503 33.4457 20.9392 24.5216 27.2844 17.8425C34.4459 10.2728 44.5945 5.59744 55.8562 5.59744C64.8174 5.59744 73.259 8.52883 80.2536 14.0762C82.0903 15.5234 83.0922 17.7126 83.018 20.0874C82.9252 22.5179 81.7378 24.6886 79.7341 26.0615C78.4725 26.9335 77.0068 27.3788 75.4854 27.3788C73.7785 27.3788 72.1644 26.8222 70.8286 25.7647C66.5799 22.4251 61.2552 20.5884 55.8377 20.5884C50.7541 20.5884 45.9303 22.1283 41.8857 24.9855C40.6241 25.876 39.4181 26.8964 38.3235 28.0467C33.778 32.7778 31.3661 39.0116 31.5516 45.5794V45.8392C31.7743 51.8689 34.2604 57.5833 38.5276 61.9062C38.676 62.0546 38.8244 62.203 38.9543 62.3329C43.1659 66.4146 48.6576 68.8265 54.4833 69.1419C54.9286 69.1605 55.3738 69.179 55.8006 69.179C61.2366 69.179 66.3758 67.4165 70.6616 64.0955C72.0716 63.0008 73.7785 62.4071 75.504 62.4071C77.0068 62.4071 78.4354 62.8524 79.697 63.7058C81.6822 65.0788 82.8696 67.2495 82.9623 69.6428C83.0737 72.0733 82.0347 74.2997 80.1608 75.7839Z" fill="white"/>
<path d="M16.5421 45.7274C16.5236 44.874 16.5236 44.1133 16.5607 43.4083C16.6535 40.8665 16.9874 38.4175 17.5254 36.0241C16.7091 35.7644 15.8557 35.5603 14.9837 35.449C14.4085 37.9722 14.056 40.5882 13.9447 43.2784V43.2969C13.9261 44.0391 13.9076 44.8183 13.9261 45.6161C13.9632 48.1764 14.2415 50.6996 14.7425 53.1672C15.633 53.0559 16.4865 52.8704 17.3214 52.6292C16.8575 50.3657 16.5978 48.0651 16.5421 45.7274Z" fill="white"/>
<path d="M31.7927 41.3869C31.5886 42.7599 31.4958 44.1699 31.5329 45.5985V45.8582C31.5515 46.3035 31.5886 46.7488 31.6257 47.1755C32.4977 47.157 33.3882 47.2312 34.3344 47.4353C34.2602 46.8787 34.2231 46.3221 34.186 45.7469C34.1303 44.1513 34.2417 42.5929 34.5014 41.053C33.5738 41.3127 32.6646 41.4055 31.7927 41.3869Z" fill="white"/>
</g>
</g>
<defs>
<filter id="filter0_di_45_847" x="0" y="3" width="89.6216" height="91.8416" filterUnits="userSpaceOnUse" color-interpolation-filters="sRGB">
<feFlood flood-opacity="0" result="BackgroundImageFix"/>
<feColorMatrix in="SourceAlpha" type="matrix" values="0 0 0 0 0 0 0 0 0 0 0 0 0 0 0 0 0 0 127 0" result="hardAlpha"/>
<feOffset dy="4"/>
<feGaussianBlur stdDeviation="2"/>
<feComposite in2="hardAlpha" operator="out"/>
<feColorMatrix type="matrix" values="0 0 0 0 0 0 0 0 0 0 0 0 0 0 0 0 0 0 0.25 0"/>
<feBlend mode="normal" in2="BackgroundImageFix" result="effect1_dropShadow_45_847"/>
<feBlend mode="normal" in="SourceGraphic" in2="effect1_dropShadow_45_847" result="shape"/>
<feColorMatrix in="SourceAlpha" type="matrix" values="0 0 0 0 0 0 0 0 0 0 0 0 0 0 0 0 0 0 127 0" result="hardAlpha"/>
<feOffset dy="4"/>
<feGaussianBlur stdDeviation="2"/>
<feComposite in2="hardAlpha" operator="arithmetic" k2="-1" k3="1"/>
<feColorMatrix type="matrix" values="0 0 0 0 0 0 0 0 0 0 0 0 0 0 0 0 0 0 0.25 0"/>
<feBlend mode="normal" in2="shape" result="effect2_innerShadow_45_847"/>
</filter>
<clipPath id="clip0_45_847">
<rect width="90" height="90" fill="white"/>
</clipPath>
</defs>
</svg>
